<?xml version="1.0" encoding="UTF-8" standalone="no"?>
<!-- Created with Inkscape (http://www.inkscape.org/) -->

<svg
   xmlns:dc="http://purl.org/dc/elements/1.1/"
   xmlns:cc="http://creativecommons.org/ns#"
   xmlns:rdf="http://www.w3.org/1999/02/22-rdf-syntax-ns#"
   xmlns:svg="http://www.w3.org/2000/svg"
   xmlns="http://www.w3.org/2000/svg"
   xmlns:sodipodi="http://sodipodi.sourceforge.net/DTD/sodipodi-0.dtd"
   xmlns:inkscape="http://www.inkscape.org/namespaces/inkscape"
   width="100"
   height="200"
   viewBox="0 0 26.458334 52.916668"
   version="1.1"
   id="svg1510"
   inkscape:version="0.92.4 (5da689c313, 2019-01-14)"
   sodipodi:docname="shape-left.svg"
   inkscape:export-filename="/home/jefdaj/myrepos/github/codeisland/codeisland/src/aside/shape-left.svg.png"
   inkscape:export-xdpi="96"
   inkscape:export-ydpi="96">
  <defs
     id="defs1504" />
  <sodipodi:namedview
     id="base"
     pagecolor="#ffffff"
     bordercolor="#666666"
     borderopacity="1.0"
     inkscape:pageopacity="0"
     inkscape:pageshadow="2"
     inkscape:zoom="1.4"
     inkscape:cx="-185.47356"
     inkscape:cy="-63.869342"
     inkscape:document-units="mm"
     inkscape:current-layer="layer1"
     showgrid="false"
     fit-margin-top="0"
     fit-margin-left="0"
     fit-margin-right="0"
     fit-margin-bottom="0"
     inkscape:window-width="1920"
     inkscape:window-height="1023"
     inkscape:window-x="0"
     inkscape:window-y="0"
     inkscape:window-maximized="1"
     units="px"
     inkscape:pagecheckerboard="true" />
  <metadata
     id="metadata1507">
    <rdf:RDF>
      <cc:Work
         rdf:about="">
        <dc:format>image/svg+xml</dc:format>
        <dc:type
           rdf:resource="http://purl.org/dc/dcmitype/StillImage" />
        <dc:title></dc:title>
      </cc:Work>
    </rdf:RDF>
  </metadata>
  <g
     inkscape:label="Layer 1"
     inkscape:groupmode="layer"
     id="layer1"
     transform="translate(-65.704166,-110.01195)">
    <path
       style="opacity:1;vector-effect:none;fill:#ffffff;fill-opacity:1;stroke:none;stroke-width:1.05098712;stroke-linecap:round;stroke-linejoin:miter;stroke-miterlimit:4;stroke-dasharray:none;stroke-dashoffset:0;stroke-opacity:1"
       d="m 59.462002,110.45026 v 52.86189 h 32.833434 c -0.843429,0 -0.373217,-0.11585 0,-0.31231 v -0.62854 c -0.237268,-0.12303 -0.620531,-0.25618 -1.246415,-0.40059 -2.874645,-0.74925 -4.432258,-1.77985 -6.716976,-3.00622 1.936234,-1.525 0.288086,-2.4513 1.625945,-3.79708 -1.572842,-1.26921 -6.889253,-2.62384 -4.088319,-4.01289 0.106353,-1.37942 0.889777,-2.68539 -2.452229,-4.08371 0.686528,0.65857 0.314956,0.34084 -0.06214,0.002 -7.555763,0.64838 -4.182734,-14.2384 -8.766833,-9.11539 0.224741,0.16448 0.215898,0.28621 -0.316062,0.36437 0.111511,-0.13609 0.212951,-0.249 0.316062,-0.36437 -0.635169,-0.46455 -3.221531,-1.29124 -1.778253,-2.61078 2.39112,-1.10562 -2.594983,-2.55528 -0.350325,-4.41867 -0.407064,-1.51169 -3.576106,-2.95704 -5.726938,-4.33242 -3.776628,-1.44704 5.95605,-2.8169 3.433377,-4.10612 1.99931,-1.38586 -5.354235,-2.67815 -4.485581,-3.87302 1.671752,-1.33573 5.752457,-2.54941 2.751761,-3.63476 -1.766684,-1.32405 -3.105722,-1.39075 -4.367537,-3.38785 -0.284893,-0.45091 -0.463949,-0.81556 -0.60292,-1.14308 z m 19.893249,36.62205 c 0.02211,-0.002 0.04053,3.6e-4 0.06214,-0.002 -0.895549,-0.76753 -0.474485,-0.36896 -0.06214,0.002 z m 12.940185,16.23984 v -0.0552 c -0.104388,0.0333 -0.143933,0.0552 0,0.0552 z"
       id="rect1482"
       inkscape:connector-curvature="0" />
  </g>
</svg>
