<?xml version="1.0" encoding="UTF-8" standalone="no"?>
<!-- Created with Inkscape (http://www.inkscape.org/) -->

<svg
   xmlns:dc="http://purl.org/dc/elements/1.1/"
   xmlns:cc="http://creativecommons.org/ns#"
   xmlns:rdf="http://www.w3.org/1999/02/22-rdf-syntax-ns#"
   xmlns:svg="http://www.w3.org/2000/svg"
   xmlns="http://www.w3.org/2000/svg"
   xmlns:sodipodi="http://sodipodi.sourceforge.net/DTD/sodipodi-0.dtd"
   xmlns:inkscape="http://www.inkscape.org/namespaces/inkscape"
   width="75"
   height="200"
   viewBox="0 0 19.84375 52.916668"
   version="1.1"
   id="svg1510"
   inkscape:version="0.92.4 (5da689c313, 2019-01-14)"
   sodipodi:docname="shape-right.svg"
   inkscape:export-filename="/home/jefdaj/myrepos/github/cryptoisland/cryptoisland/src/aside/shape-right.svg.png"
   inkscape:export-xdpi="96"
   inkscape:export-ydpi="96">
  <defs
     id="defs1504" />
  <sodipodi:namedview
     id="base"
     pagecolor="#ffffff"
     bordercolor="#666666"
     borderopacity="1.0"
     inkscape:pageopacity="0"
     inkscape:pageshadow="2"
     inkscape:zoom="1.979899"
     inkscape:cx="-93.172183"
     inkscape:cy="174.49182"
     inkscape:document-units="mm"
     inkscape:current-layer="layer1"
     showgrid="false"
     fit-margin-top="0"
     fit-margin-left="0"
     fit-margin-right="0"
     fit-margin-bottom="0"
     inkscape:window-width="1920"
     inkscape:window-height="1023"
     inkscape:window-x="0"
     inkscape:window-y="0"
     inkscape:window-maximized="1"
     units="px"
     inkscape:pagecheckerboard="true" />
  <metadata
     id="metadata1507">
    <rdf:RDF>
      <cc:Work
         rdf:about="">
        <dc:format>image/svg+xml</dc:format>
        <dc:type
           rdf:resource="http://purl.org/dc/dcmitype/StillImage" />
        <dc:title />
      </cc:Work>
    </rdf:RDF>
  </metadata>
  <g
     inkscape:label="Layer 1"
     inkscape:groupmode="layer"
     id="layer1"
     transform="translate(-65.704166,-110.01195)">
    <path
       inkscape:connector-curvature="0"
       style="opacity:1;vector-effect:none;fill:#000000;fill-opacity:1;stroke:none;stroke-width:0.79970121;stroke-linecap:round;stroke-linejoin:miter;stroke-miterlimit:4;stroke-dasharray:none;stroke-dashoffset:0;stroke-opacity:1"
       d="m 85.421815,110.19285 c -0.264934,0.5558 -0.782496,1.22977 -1.692383,1.99951 0.841996,1.08419 -0.940862,2.3533 0.06996,3.72912 -0.860404,1.19969 -4.566479,2.48105 -3.450177,3.79194 0.59784,1.27864 2.30014,2.58572 0.540499,3.87342 -2.39354,1.37409 -2.742974,2.72706 -4.519388,3.99903 -1.549676,1.57572 -1.634229,3.0274 0,4.24681 -2.515343,1.17262 1.72211,2.74888 1.829553,4.56934 1.869406,1.40056 -5.785213,2.94526 -4.285004,4.56424 0.571124,1.45817 -1.191098,2.97665 -0.871178,4.50144 -1.584078,1.47355 -2.238513,2.95333 -0.778523,4.39279 0.849944,1.46202 3.188635,2.88274 1.529776,4.2112 -0.535753,1.41838 -4.89858,2.73091 -4.218696,3.8802 1.355924,1.29535 -2.483647,2.38177 -1.188219,3.17239 -0.231281,0.74594 -2.138762,1.22433 -2.487251,1.37148 v 0.0526 h 19.521042 z m -19.521041,51.43046 v 0.61954 c 0.212827,-0.15405 0.369298,-0.35674 0,-0.61954 z"
       id="rect1487" />
  </g>
</svg>
