<?xml version="1.0" encoding="UTF-8" standalone="no"?>
<!-- Created with Inkscape (http://www.inkscape.org/) -->

<svg
   xmlns:dc="http://purl.org/dc/elements/1.1/"
   xmlns:cc="http://creativecommons.org/ns#"
   xmlns:rdf="http://www.w3.org/1999/02/22-rdf-syntax-ns#"
   xmlns:svg="http://www.w3.org/2000/svg"
   xmlns="http://www.w3.org/2000/svg"
   xmlns:sodipodi="http://sodipodi.sourceforge.net/DTD/sodipodi-0.dtd"
   xmlns:inkscape="http://www.inkscape.org/namespaces/inkscape"
   width="100"
   height="200"
   viewBox="0 0 26.458334 52.916668"
   version="1.1"
   id="svg1510"
   inkscape:version="0.92.4 (5da689c313, 2019-01-14)"
   sodipodi:docname="shape-left.svg"
   inkscape:export-filename="/home/jefdaj/myrepos/github/cryptoisland/cryptoisland/src/aside/shape-left.svg.png"
   inkscape:export-xdpi="96"
   inkscape:export-ydpi="96">
  <defs
     id="defs1504" />
  <sodipodi:namedview
     id="base"
     pagecolor="#ffffff"
     bordercolor="#666666"
     borderopacity="1.0"
     inkscape:pageopacity="0"
     inkscape:pageshadow="2"
     inkscape:zoom="1.4"
     inkscape:cx="-44.044989"
     inkscape:cy="-6.7264849"
     inkscape:document-units="mm"
     inkscape:current-layer="layer1"
     showgrid="false"
     fit-margin-top="0"
     fit-margin-left="0"
     fit-margin-right="0"
     fit-margin-bottom="0"
     inkscape:window-width="1920"
     inkscape:window-height="1023"
     inkscape:window-x="0"
     inkscape:window-y="0"
     inkscape:window-maximized="1"
     units="px"
     inkscape:pagecheckerboard="true" />
  <metadata
     id="metadata1507">
    <rdf:RDF>
      <cc:Work
         rdf:about="">
        <dc:format>image/svg+xml</dc:format>
        <dc:type
           rdf:resource="http://purl.org/dc/dcmitype/StillImage" />
        <dc:title />
      </cc:Work>
    </rdf:RDF>
  </metadata>
  <g
     inkscape:label="Layer 1"
     inkscape:groupmode="layer"
     id="layer1"
     transform="translate(-65.704166,-110.01195)">
    <path
       style="opacity:1;vector-effect:none;fill:#000000;fill-opacity:1;stroke:none;stroke-width:0.94591945;stroke-linecap:round;stroke-linejoin:miter;stroke-miterlimit:4;stroke-dasharray:none;stroke-dashoffset:0;stroke-opacity:1"
       d="m 65.698609,110.45026 v 52.86189 h 26.596827 c -0.683222,0 -0.302326,-0.11585 0,-0.31231 v -0.62854 c -0.1922,-0.12303 -0.502663,-0.25618 -1.009662,-0.40059 -2.328616,-0.74925 -3.590365,-1.77985 -5.441108,-3.00622 1.568452,-1.525 0.233365,-2.4513 1.317102,-3.79708 -1.274086,-1.26921 -5.580661,-2.62384 -3.311756,-4.01289 0.08615,-1.37942 0.720767,-2.68539 -1.986436,-4.08371 0.556124,0.65857 0.255131,0.34084 -0.05034,0.002 -6.12057,0.64838 -3.388237,-14.2384 -7.101601,-9.11539 0.182052,0.16448 0.174889,0.28621 -0.256027,0.36437 0.09033,-0.13609 0.172501,-0.249 0.256027,-0.36437 -0.514521,-0.46455 -2.609611,-1.29124 -1.44048,-2.61078 1.936935,-1.10562 -2.102074,-2.55528 -0.283781,-4.41867 -0.329744,-1.51169 -2.896836,-2.95704 -4.639125,-4.33242 -3.059269,-1.44704 4.824717,-2.8169 2.781218,-4.10612 1.619548,-1.38586 -4.337215,-2.67815 -3.633559,-3.87302 1.354208,-1.33573 4.659796,-2.54941 2.229073,-3.63476 -1.431108,-1.32405 -2.5158,-1.39075 -3.537937,-3.38785 -0.230779,-0.45091 -0.375824,-0.81556 -0.488398,-1.14308 z m 16.114589,36.62205 c 0.01791,-0.002 0.03283,3.6e-4 0.05034,-0.002 -0.725442,-0.76753 -0.384358,-0.36896 -0.05034,0.002 z m 10.482238,16.23984 v -0.0552 c -0.08456,0.0333 -0.116593,0.0552 0,0.0552 z"
       id="rect1482"
       inkscape:connector-curvature="0" />
  </g>
</svg>
