<?xml version="1.0" encoding="UTF-8" standalone="no"?>
<!-- Created with Inkscape (http://www.inkscape.org/) -->

<svg
   xmlns:dc="http://purl.org/dc/elements/1.1/"
   xmlns:cc="http://creativecommons.org/ns#"
   xmlns:rdf="http://www.w3.org/1999/02/22-rdf-syntax-ns#"
   xmlns:svg="http://www.w3.org/2000/svg"
   xmlns="http://www.w3.org/2000/svg"
   xmlns:sodipodi="http://sodipodi.sourceforge.net/DTD/sodipodi-0.dtd"
   xmlns:inkscape="http://www.inkscape.org/namespaces/inkscape"
   width="125"
   height="200"
   viewBox="0 0 33.072917 52.916668"
   version="1.1"
   id="svg1510"
   inkscape:version="0.92.4 (5da689c313, 2019-01-14)"
   sodipodi:docname="shape-right.svg">
  <defs
     id="defs1504" />
  <sodipodi:namedview
     id="base"
     pagecolor="#ffffff"
     bordercolor="#666666"
     borderopacity="1.0"
     inkscape:pageopacity="0"
     inkscape:pageshadow="2"
     inkscape:zoom="1.979899"
     inkscape:cx="110.87863"
     inkscape:cy="174.49182"
     inkscape:document-units="mm"
     inkscape:current-layer="layer1"
     showgrid="false"
     fit-margin-top="0"
     fit-margin-left="0"
     fit-margin-right="0"
     fit-margin-bottom="0"
     inkscape:window-width="1920"
     inkscape:window-height="1023"
     inkscape:window-x="0"
     inkscape:window-y="0"
     inkscape:window-maximized="1"
     units="px"
     inkscape:pagecheckerboard="true" />
  <metadata
     id="metadata1507">
    <rdf:RDF>
      <cc:Work
         rdf:about="">
        <dc:format>image/svg+xml</dc:format>
        <dc:type
           rdf:resource="http://purl.org/dc/dcmitype/StillImage" />
        <dc:title />
      </cc:Work>
    </rdf:RDF>
  </metadata>
  <g
     inkscape:label="Layer 1"
     inkscape:groupmode="layer"
     id="layer1"
     transform="translate(-65.704166,-110.01195)">
    <path
       inkscape:connector-curvature="0"
       style="opacity:1;vector-effect:none;fill:#ffffff;fill-opacity:1;stroke:none;stroke-width:1.03582811;stroke-linecap:round;stroke-linejoin:miter;stroke-miterlimit:4;stroke-dasharray:none;stroke-dashoffset:0;stroke-opacity:1"
       d="m 98.651646,110.19285 c -0.444486,0.5558 -1.312811,1.22977 -2.839348,1.99951 1.412634,1.08419 -1.578504,2.3533 0.117382,3.72912 -1.443518,1.19969 -7.661281,2.48105 -5.788437,3.79194 1.003009,1.27864 3.858994,2.58572 0.906807,3.87342 -4.015693,1.37409 -4.601947,2.72706 -7.582274,3.99903 -2.599925,1.57572 -2.741781,3.0274 0,4.24681 -4.220045,1.17262 2.889221,2.74888 3.06948,4.56934 3.136342,1.40056 -9.705977,2.94526 -7.189044,4.56424 0.958188,1.45817 -1.998331,2.97665 -1.461593,4.50144 -2.657643,1.47355 -3.755602,2.95333 -1.306145,4.39279 1.425969,1.46202 5.349641,2.88274 2.566537,4.2112 -0.898844,1.41838 -8.218453,2.73091 -7.077796,3.8802 2.274862,1.29535 -4.166868,2.38177 -1.993501,3.17239 -0.388026,0.74594 -3.588248,1.22433 -4.172914,1.37148 v 0.0526 h 32.750873 z m -32.750872,51.43046 v 0.61954 c 0.357064,-0.15405 0.619579,-0.35674 0,-0.61954 z"
       id="rect1487" />
  </g>
</svg>
